<svg width="64" height="61" viewBox="0 0 64 61" fill="none" xmlns="http://www.w3.org/2000/svg">
<path d="M6.00055 43.0038C6.16784 43.0036 6.33243 42.9616 6.47924 42.8814C6.62606 42.8012 6.75041 42.6854 6.84092 42.5447C6.93143 42.404 6.9852 42.2429 6.9973 42.076C7.00941 41.9092 6.97947 41.742 6.91022 41.5897C5.10937 37.9852 4.11624 34.0314 4.00006 30.0038C4.00156 27.9102 4.23815 25.8234 4.70538 23.7826L7.39996 25.8036C7.51913 25.8925 7.65651 25.9538 7.80223 25.9833C7.94796 26.0128 8.0984 26.0096 8.24274 25.974L11.3443 25.1986L12.0513 27.3202C12.1217 27.531 12.2603 27.7125 12.4453 27.8358L15.2788 29.7249L16.9224 32.1903L16.0298 35.7611C15.9688 36.0055 16.0022 36.2639 16.1234 36.4848C16.2446 36.7056 16.4446 36.8727 16.6836 36.9525L19.0001 37.7245V40.0038C19.0001 40.2689 19.1055 40.5233 19.2931 40.7108L22.2931 43.7108C22.3395 43.7574 22.3906 43.7993 22.4454 43.8358L25.1236 45.6214L26.0299 49.2464C26.074 49.4221 26.165 49.5826 26.2931 49.7107C26.4212 49.8388 26.5817 49.9298 26.7574 49.9739L30.3824 50.8802L32.1681 53.5584C32.2914 53.7434 32.4728 53.8821 32.6837 53.9524L35.6837 54.9524C35.9121 55.0285 36.1603 55.0197 36.3827 54.9276C36.6051 54.8355 36.7869 54.6663 36.8946 54.451L37.8946 52.451C37.9534 52.3335 37.9884 52.2056 37.9977 52.0745C38.007 51.9435 37.9904 51.8119 37.9488 51.6873L37.0797 49.0804L37.8219 47.596L39.7071 45.7108C39.8167 45.601 39.8995 45.4673 39.9488 45.3201L40.9488 42.3201C41.0181 42.112 41.0171 41.8868 40.9459 41.6793C40.8747 41.4718 40.7373 41.2934 40.5548 41.1717L38.1412 39.5628L38.9703 36.2464C39.021 36.0423 39.0065 35.8275 38.9288 35.6321L36.9288 30.6321C36.8424 30.4149 36.6824 30.2348 36.4768 30.1235C36.2711 30.0122 36.0329 29.9767 35.8038 30.0233L31.2423 30.9354L27.6002 28.204C27.5141 28.1395 27.4184 28.0893 27.3165 28.055L21.4434 26.0975L18.8404 24.3622L17.2232 19.5102L18.4474 18.8983C18.5764 18.8338 18.6899 18.7421 18.7802 18.6296C18.8704 18.5171 18.9353 18.3864 18.9703 18.2465L19.7276 15.2167L22.7574 15.974C22.8926 16.0081 23.0334 16.0135 23.1708 15.9897C23.3081 15.9659 23.439 15.9135 23.5548 15.8358L26.5548 13.8358C26.6096 13.7994 26.6607 13.7575 26.7071 13.7108L28.7071 11.7108C28.8555 11.5624 28.9535 11.3711 28.9871 11.1639C29.0208 10.9568 28.9884 10.7443 28.8946 10.5565L27.9264 8.62001L26.9488 5.68739C26.8732 5.46109 26.7193 5.26923 26.5147 5.14639L23.4885 3.33059C26.2398 2.45019 29.1113 2.00257 32.0001 2.00375C38.2823 1.8984 44.4127 3.93858 49.379 7.78745C49.4817 7.87038 49.5999 7.93213 49.7267 7.96914C49.8535 8.00615 49.9863 8.01768 50.1176 8.00308C50.2488 7.98847 50.3759 7.94801 50.4914 7.88403C50.6069 7.82005 50.7086 7.73382 50.7907 7.63033C50.8727 7.52683 50.9334 7.40811 50.9693 7.28102C51.0052 7.15393 51.0156 7.02099 50.9998 6.88987C50.984 6.75875 50.9425 6.63205 50.8775 6.51709C50.8125 6.40213 50.7254 6.30118 50.6212 6.22006C45.3023 2.08936 38.7336 -0.103484 32.0001 0.00375449C24.0463 0.0127693 16.421 3.17637 10.7968 8.80051C5.17268 14.4246 2.00908 22.05 2.00006 30.0038C2.11308 34.3175 3.16764 38.5544 5.0899 42.4178C5.16934 42.5927 5.29748 42.7409 5.45898 42.8448C5.62048 42.9487 5.80851 43.0039 6.00055 43.0038V43.0038ZM21.0837 4.22012L25.1685 6.67075L26.0513 9.32017C26.0664 9.36496 26.0846 9.40868 26.1055 9.45103L26.7833 10.8065L25.3629 12.2264L22.8135 13.9261L19.2427 13.0336C18.9855 12.9697 18.7133 13.0104 18.486 13.1467C18.2587 13.2831 18.0946 13.504 18.0299 13.7611L17.1417 17.3148L15.5528 18.1092C15.3375 18.217 15.1684 18.3987 15.0763 18.6211C14.9842 18.8436 14.9753 19.0917 15.0513 19.3201L17.0513 25.3201C17.1217 25.531 17.2603 25.7124 17.4453 25.8357L20.4453 27.8357C20.5193 27.885 20.5994 27.9242 20.6836 27.9524L26.5298 29.9012L30.4 32.8036C30.5126 32.8879 30.6417 32.9476 30.7789 32.9787C30.9161 33.0099 31.0584 33.0117 31.1964 32.9842L35.3804 32.1473L36.9517 36.075L36.0299 39.761C35.9798 39.9612 35.9929 40.1719 36.0673 40.3643C36.1417 40.5566 36.2737 40.7213 36.4454 40.8358L38.8096 42.4119L38.1261 44.4638L36.2931 46.2968C36.217 46.3727 36.1536 46.4604 36.1056 46.5565L35.1056 48.5565C35.0468 48.674 35.0118 48.8019 35.0025 48.933C34.9932 49.064 35.0098 49.1956 35.0514 49.3202L35.9205 51.9271L35.4937 52.7806L33.6417 52.1635L31.8321 49.4491C31.694 49.2422 31.4839 49.0941 31.2427 49.0335L27.8247 48.179L26.9702 44.761C26.9097 44.5198 26.7616 44.3097 26.5547 44.1717L23.6372 42.2264L21.0001 39.5897V37.0038C21.0001 36.7939 20.9341 36.5893 20.8114 36.4191C20.6887 36.2488 20.5156 36.1214 20.3165 36.055L18.1949 35.348L18.9703 32.2465C19.0041 32.1113 19.0092 31.9705 18.9854 31.8332C18.9616 31.6959 18.9094 31.565 18.8321 31.4491L16.8321 28.4491C16.7589 28.3392 16.6646 28.245 16.5548 28.1718L13.8404 26.3622L12.9488 23.6873C12.869 23.4483 12.702 23.2483 12.4812 23.127C12.2603 23.0058 12.0018 22.9724 11.7574 23.0335L8.2193 23.9183L5.25793 21.6973C6.47474 17.8128 8.51983 14.2386 11.2521 11.2213C13.9843 8.2039 17.3387 5.81525 21.0837 4.22012V4.22012Z" fill="white"/>
<path d="M58.6207 18.0785C58.3753 18.1791 58.1799 18.3731 58.0776 18.6178C57.9752 18.8625 57.9742 19.1378 58.0748 19.3832C59.4018 22.7643 60.0558 26.372 60.0001 30.0038C60.0001 30.0645 59.9959 30.1243 59.9955 30.1849L56.0645 30.9711L53.3165 30.0551C53.1403 29.9961 52.9512 29.9875 52.7704 30.0302C52.5895 30.0729 52.4242 30.1652 52.293 30.2968L50.3629 32.2265L47.4454 34.1718C47.2247 34.3189 47.0716 34.5477 47.0196 34.8077C46.9676 35.0678 47.021 35.3378 47.168 35.5585L49.168 38.5585C49.2593 38.6955 49.383 38.8078 49.5282 38.8855C49.6733 38.9632 49.8354 39.0038 50.0001 39.0038H52.3819L52.7833 39.8065L50.2931 42.2968C50.217 42.3727 50.1536 42.4604 50.1056 42.5565L49.1056 44.5565C49.0009 44.766 48.973 45.0055 49.0268 45.2334C49.0806 45.4613 49.2127 45.6631 49.4 45.8036L52.9953 48.5002C50.3732 51.4866 47.144 53.8792 43.5234 55.518C39.9029 57.1569 35.9743 58.0044 32.0001 58.0038C26.9139 58.0132 21.9151 56.6813 17.5079 54.1425C17.2794 54.0078 17.0069 53.9694 16.7501 54.0357C16.4933 54.102 16.2734 54.2675 16.1387 54.496C16.0041 54.7244 15.9656 54.997 16.0319 55.2538C16.0982 55.5105 16.2638 55.7304 16.4923 55.8651C21.2076 58.5844 26.5568 60.0119 32.0001 60.0038C39.9538 59.9948 47.5792 56.8312 53.2033 51.207C58.8275 45.5829 61.9911 37.9575 62.0001 30.0038C62.0562 26.1117 61.3515 22.2462 59.9254 18.6244C59.8245 18.3792 59.6305 18.1839 59.3859 18.0816C59.1413 17.9793 58.8661 17.9781 58.6207 18.0785V18.0785ZM51.2677 44.7045L51.8219 43.5961L54.7071 40.7108C54.8555 40.5624 54.9534 40.371 54.9871 40.1639C55.0207 39.9567 54.9883 39.7442 54.8946 39.5565L53.8946 37.5565C53.8115 37.3904 53.6838 37.2507 53.5258 37.1531C53.3678 37.0554 53.1858 37.0037 53.0001 37.0038H50.5352L49.3868 35.2811L51.5548 33.8358C51.6096 33.7994 51.6607 33.7575 51.7071 33.7108L53.2701 32.1478L55.6837 32.9525C55.8489 33.0079 56.0257 33.0188 56.1964 32.9842L59.9025 32.243C59.4791 37.5869 57.5222 42.6951 54.2668 46.954L51.2677 44.7045Z" fill="white"/>
<path d="M60.752 11.3285C60.3997 10.1084 59.6684 9.03202 58.664 8.25497C57.6595 7.47793 56.4339 7.04052 55.1644 7.006C53.895 6.97148 52.6474 7.34163 51.6022 8.06294C50.557 8.78424 49.7683 9.8193 49.3502 11.0184C48.6653 10.9673 47.9772 11.0584 47.3292 11.286C46.6812 11.5136 46.0873 11.8728 45.5848 12.3411C45.0824 12.8093 44.6822 13.3764 44.4094 14.0067C44.1367 14.637 43.9973 15.317 44 16.0038C44 16.269 44.1054 16.5234 44.2929 16.7109C44.4805 16.8984 44.7348 17.0038 45 17.0038H63C63.2653 17.0038 63.5196 16.8984 63.7071 16.7109C63.8947 16.5234 64 16.269 64 16.0038C64.0027 14.9856 63.6926 13.9912 63.1117 13.1551C62.5308 12.3189 61.7071 11.6813 60.752 11.3285V11.3285ZM46.1714 15.0038C46.3789 14.4193 46.7621 13.9133 47.2685 13.5552C47.775 13.1971 48.3798 13.0045 49 13.0038C49.2754 13.009 49.5488 13.0527 49.812 13.1337C49.9472 13.1719 50.089 13.1812 50.228 13.161C50.367 13.1407 50.5002 13.0915 50.6189 13.0163C50.7377 12.9412 50.8392 12.8419 50.917 12.7249C50.9948 12.6079 51.047 12.4758 51.0703 12.3373C51.2241 11.4097 51.7009 10.5663 52.4163 9.95631C53.1318 9.34628 54.04 9.00886 54.9802 9.00372C55.9204 8.99857 56.8322 9.32602 57.5543 9.92818C58.2765 10.5303 58.7624 11.3684 58.9263 12.2943C58.9609 12.4865 59.051 12.6644 59.1855 12.806C59.32 12.9476 59.493 13.0467 59.6832 13.0912C60.173 13.2037 60.6264 13.4379 61.0016 13.7723C61.3768 14.1066 61.6616 14.5302 61.8296 15.0038H46.1714Z" fill="white"/>
<path d="M20 52.0037C20.0027 50.9856 19.6926 49.9912 19.1117 49.155C18.5308 48.3188 17.7071 47.6813 16.752 47.3285C16.3997 46.1084 15.6685 45.0319 14.664 44.2549C13.6595 43.4778 12.4339 43.0404 11.1644 43.0059C9.89494 42.9714 8.64738 43.3415 7.60216 44.0628C6.55695 44.7842 5.76825 45.8192 5.35015 47.0184C4.66518 46.967 3.97699 47.0579 3.32887 47.2854C2.68076 47.5129 2.08674 47.8721 1.58421 48.3404C1.08168 48.8086 0.681503 49.3759 0.408869 50.0063C0.136234 50.6368 -0.00295884 51.3169 4.76854e-05 52.0037C4.76854e-05 52.269 0.105405 52.5233 0.292941 52.7109C0.480477 52.8984 0.734831 53.0037 1.00005 53.0037H19C19.2653 53.0037 19.5196 52.8984 19.7072 52.7109C19.8947 52.5233 20 52.269 20 52.0037ZM2.17144 51.0037C2.37888 50.4192 2.76211 49.9132 3.26855 49.5551C3.77498 49.1971 4.37981 49.0044 5.00005 49.0037C5.27545 49.0089 5.54877 49.0526 5.81205 49.1336C5.94724 49.1718 6.08897 49.1811 6.228 49.1609C6.36703 49.1407 6.50023 49.0914 6.61895 49.0163C6.73766 48.9412 6.83921 48.8419 6.91699 48.7249C6.99476 48.6079 7.04702 48.4758 7.07035 48.3372C7.2241 47.4097 7.70087 46.5663 8.41636 45.9563C9.13185 45.3462 10.04 45.0088 10.9802 45.0037C11.9205 44.9985 12.8322 45.326 13.5544 45.9281C14.2765 46.5303 14.7624 47.3684 14.9263 48.2942C14.9609 48.4865 15.051 48.6643 15.1855 48.806C15.32 48.9476 15.493 49.0467 15.6832 49.0911C16.173 49.2036 16.6264 49.4379 17.0016 49.7722C17.3768 50.1065 17.6616 50.5301 17.8296 51.0037H2.17144Z" fill="white"/>
<path d="M36.6837 15.0551L34.148 15.9003L31.5548 14.1718C31.3624 14.0435 31.1316 13.9859 30.9015 14.0087C30.6715 14.0314 30.4564 14.1333 30.293 14.2968L28.293 16.2968C28.1055 16.4843 28.0001 16.7386 28.0001 17.0038V21.0038C28 21.1684 28.0407 21.3305 28.1184 21.4757C28.196 21.6208 28.3084 21.7445 28.4454 21.8358L31.4454 23.8358C31.5613 23.9131 31.6922 23.9653 31.8295 23.9891C31.9668 24.0129 32.1075 24.0077 32.2427 23.974L36.2427 22.974C36.4186 22.9301 36.5791 22.8391 36.7071 22.7108L39.7071 19.7108C39.8706 19.5474 39.9724 19.3323 39.9951 19.1023C40.0179 18.8722 39.9603 18.6414 39.8321 18.4491L37.8321 15.4491C37.7105 15.2663 37.5322 15.1287 37.3246 15.0575C37.117 14.9863 36.8918 14.9854 36.6837 15.0551V15.0551ZM35.4888 21.101L32.1866 21.9262L30.0001 20.4686V17.4179L31.1275 16.2904L33.4454 17.8358C33.5722 17.92 33.7166 17.9742 33.8675 17.9944C34.0184 18.0146 34.1719 18.0003 34.3165 17.9525L36.5919 17.1942L37.7134 18.8763L35.4888 21.101Z" fill="white"/>
<path d="M43.6284 25.9325L48.6284 27.9325C48.7467 27.9797 48.8728 28.0038 49 28.0038C49.0415 28.0039 49.0829 28.0013 49.124 27.996L57.124 26.996C57.2827 26.9762 57.4344 26.9186 57.5662 26.828C57.6981 26.7375 57.8063 26.6166 57.8818 26.4756C57.9572 26.3346 57.9978 26.1776 58 26.0176C58.0022 25.8577 57.9661 25.6996 57.8945 25.5565L54.8945 19.5565C54.8115 19.3904 54.6838 19.2507 54.5258 19.1531C54.3678 19.0554 54.1858 19.0037 54 19.0038H50C49.8448 19.0038 49.6916 19.0399 49.5528 19.1093L45.5528 21.1093C45.3971 21.1872 45.2645 21.3043 45.168 21.4491L43.168 24.4491C43.0855 24.5729 43.0316 24.7136 43.0103 24.8609C42.9891 25.0081 43.0009 25.1583 43.045 25.3004C43.0891 25.4425 43.1644 25.573 43.2653 25.6824C43.3663 25.7917 43.4903 25.8772 43.6284 25.9325V25.9325ZM46.6846 22.7797L50.2359 21.0038H53.3819L55.4737 25.1869L49.1319 25.9794L45.5156 24.5331L46.6846 22.7797Z" fill="white"/>
</svg>
