<svg width="60" height="60" viewBox="0 0 60 60" fill="none" xmlns="http://www.w3.org/2000/svg">
<path d="M57 24C55.822 24 54.867 25.105 54.365 27H50.772C50.2756 23.529 48.9092 20.24 46.8 17.439L49.347 14.892C51.04 15.878 52.497 15.984 53.33 15.151C53.73 14.751 54.277 13.819 53.506 12.016C52.9445 10.8073 52.1648 9.71266 51.206 8.787C50.2808 7.82766 49.186 7.04786 47.977 6.487C46.177 5.713 45.239 6.265 44.843 6.662C44.01 7.495 44.115 8.952 45.1 10.646L42.561 13.2C39.76 11.0908 36.471 9.72444 33 9.228V5.635C34.9 5.135 36 4.178 36 3C36 0.939 32.89 0 30 0C27.11 0 24 0.939 24 3C24 4.178 25.105 5.134 27 5.635V9.228C23.529 9.72444 20.24 11.0908 17.439 13.2L14.893 10.65C15.878 8.956 15.983 7.499 15.15 6.666C14.75 6.266 13.82 5.718 12.016 6.491C10.807 7.05186 9.7122 7.83166 8.787 8.791C7.8282 9.71666 7.04848 10.8113 6.487 12.02C5.716 13.82 6.267 14.758 6.663 15.155C7.496 15.99 8.954 15.882 10.646 14.896L13.2 17.439C11.0908 20.24 9.72444 23.529 9.228 27H5.635C5.135 25.105 4.178 24 3 24C0.938 24 0 27.11 0 30C0 32.89 0.938 36 3 36C4.178 36 5.133 34.9 5.635 33H9.228C9.72444 36.471 11.0908 39.76 13.2 42.561L10.653 45.108C8.959 44.122 7.503 44.016 6.67 44.849C6.27 45.249 5.723 46.181 6.494 47.984C7.05548 49.1927 7.8352 50.2873 8.794 51.213C9.7192 52.1723 10.814 52.9521 12.023 53.513C12.5413 53.7532 13.103 53.8856 13.674 53.902C13.9464 53.9127 14.2182 53.8683 14.4731 53.7714C14.7279 53.6745 14.9605 53.527 15.157 53.338C15.99 52.505 15.885 51.048 14.9 49.354L17.439 46.8C20.24 48.9092 23.529 50.2756 27 50.772V54.365C25.105 54.865 24 55.822 24 57C24 59.061 27.11 60 30 60C32.89 60 36 59.061 36 57C36 55.822 34.9 54.866 33 54.365V50.772C36.471 50.2756 39.76 48.9092 42.561 46.8L45.107 49.346C44.122 51.04 44.017 52.497 44.85 53.33C45.0464 53.5191 45.279 53.6666 45.5339 53.7635C45.7887 53.8605 46.0606 53.9048 46.333 53.894C46.904 53.8776 47.4657 53.7452 47.984 53.505C50.3952 52.3375 52.3421 50.391 53.51 47.98C54.281 46.18 53.73 45.242 53.334 44.845C52.502 44.012 51.043 44.119 49.351 45.104L46.8 42.561C48.9092 39.76 50.2756 36.471 50.772 33H54.365C54.865 34.9 55.822 36 57 36C59.062 36 60 32.89 60 30C60 27.11 59.062 24 57 24ZM57 33.973C56.5161 33.3543 56.2219 32.6085 56.153 31.826C56.1122 31.5948 55.9913 31.3854 55.8116 31.2344C55.6319 31.0834 55.4047 31.0004 55.17 31H48C47.2044 31 46.4413 31.3161 45.8787 31.8787C45.3161 32.4413 45 33.2044 45 34C45 34.2652 45.1054 34.5196 45.2929 34.7071C45.4804 34.8946 45.7348 35 46 35C46.2652 35 46.5196 34.8946 46.7071 34.7071C46.8946 34.5196 47 34.2652 47 34C47 33.7348 47.1054 33.4804 47.2929 33.2929C47.4804 33.1054 47.7348 33 48 33H48.755C48.2894 35.9408 47.132 38.729 45.378 41.135L44.85 40.606C44.6628 40.4185 44.5577 40.1644 44.5577 39.8995C44.5577 39.6346 44.6628 39.3805 44.85 39.193C45.0376 39.0055 45.1431 38.7511 45.1432 38.4859C45.1433 38.2206 45.038 37.9661 44.8505 37.7785C44.663 37.5909 44.4086 37.4854 44.1434 37.4853C43.8781 37.4852 43.6236 37.5905 43.436 37.778C43.1574 38.0566 42.9363 38.3873 42.7855 38.7513C42.6348 39.1153 42.5571 39.5055 42.5571 39.8995C42.5571 40.2935 42.6348 40.6837 42.7855 41.0477C42.9363 41.4117 43.1574 41.7424 43.436 42.021L48.505 47.091C48.6712 47.2571 48.8906 47.3593 49.1246 47.3798C49.3587 47.4003 49.5925 47.3377 49.785 47.203C50.387 46.699 51.1218 46.3795 51.901 46.283C51.947 46.703 51.452 48.146 49.801 49.799C48.15 51.452 46.708 51.93 46.285 51.899C46.38 51.1194 46.6996 50.3842 47.205 49.783C47.3399 49.5904 47.4027 49.3564 47.3822 49.1221C47.3617 48.8878 47.2593 48.6683 47.093 48.502L42.023 43.432C41.4595 42.871 40.6967 42.556 39.9015 42.556C39.1063 42.556 38.3435 42.871 37.78 43.432C37.5924 43.6195 37.4869 43.8739 37.4868 44.1391C37.4867 44.4044 37.592 44.6589 37.7795 44.8465C37.967 45.0341 38.2214 45.1396 38.4866 45.1397C38.7519 45.1398 39.0064 45.0345 39.194 44.847C39.3815 44.6595 39.6358 44.5542 39.901 44.5542C40.1662 44.5542 40.4205 44.6595 40.608 44.847L41.137 45.376C38.7306 47.131 35.9417 48.2891 33 48.755V48C33 47.7348 33.1054 47.4804 33.2929 47.2929C33.4804 47.1054 33.7348 47 34 47C34.2652 47 34.5196 46.8946 34.7071 46.7071C34.8946 46.5196 35 46.2652 35 46C35 45.7348 34.8946 45.4804 34.7071 45.2929C34.5196 45.1054 34.2652 45 34 45C33.2044 45 32.4413 45.3161 31.8787 45.8787C31.3161 46.4413 31 47.2044 31 48V55.17C30.9999 55.4051 31.0827 55.6327 31.2338 55.8128C31.3848 55.9929 31.5945 56.1141 31.826 56.155C32.6084 56.2229 33.3542 56.5165 33.973 57C33.707 57.329 32.337 58 30 58C27.663 58 26.293 57.33 26.027 57C26.6457 56.5161 27.3915 56.2222 28.174 56.154C28.4053 56.1131 28.6149 55.9921 28.7659 55.8122C28.917 55.6323 28.9998 55.4049 29 55.17V48C29 47.2044 28.6839 46.4413 28.1213 45.8787C27.5587 45.3161 26.7956 45 26 45C25.7348 45 25.4804 45.1054 25.2929 45.2929C25.1054 45.4804 25 45.7348 25 46C25 46.2652 25.1054 46.5196 25.2929 46.7071C25.4804 46.8946 25.7348 47 26 47C26.2652 47 26.5196 47.1054 26.7071 47.2929C26.8946 47.4804 27 47.7348 27 48V48.755C24.0592 48.2894 21.271 47.132 18.865 45.378L19.394 44.85C19.5815 44.6625 19.8358 44.5572 20.101 44.5572C20.3662 44.5572 20.6205 44.6625 20.808 44.85C20.9956 45.0375 21.2501 45.1428 21.5154 45.1427C21.7806 45.1426 22.035 45.0371 22.2225 44.8495C22.41 44.6619 22.5153 44.4074 22.5152 44.1421C22.5151 43.8769 22.4096 43.6225 22.222 43.435C21.6586 42.8737 20.8958 42.5586 20.1005 42.5586C19.3052 42.5586 18.5424 42.8737 17.979 43.435L12.909 48.505C12.7427 48.6713 12.6403 48.8908 12.6198 49.1251C12.5993 49.3594 12.6621 49.5934 12.797 49.786C13.3024 50.3872 13.622 51.1224 13.717 51.902C13.279 51.93 11.854 51.451 10.201 49.802C8.548 48.153 8.053 46.707 8.101 46.287C8.88037 46.3829 9.6153 46.7024 10.217 47.207C10.4095 47.3417 10.6433 47.4043 10.8774 47.3838C11.1114 47.3633 11.3308 47.2611 11.497 47.095L16.566 42.025C16.8446 41.7464 17.0657 41.4157 17.2164 41.0517C17.3672 40.6877 17.4449 40.2975 17.4449 39.9035C17.4449 39.5095 17.3672 39.1193 17.2164 38.7553C17.0657 38.3913 16.8446 38.0606 16.566 37.782C16.3784 37.5945 16.1239 37.4892 15.8586 37.4893C15.5934 37.4894 15.339 37.5949 15.1515 37.7825C14.964 37.9701 14.8587 38.2246 14.8588 38.4899C14.8589 38.7551 14.9644 39.0095 15.152 39.197C15.3392 39.3845 15.4443 39.6386 15.4443 39.9035C15.4443 40.1684 15.3392 40.4225 15.152 40.61L14.624 41.139C12.8687 38.732 11.7106 35.9424 11.245 33H12C12.2652 33 12.5196 33.1054 12.7071 33.2929C12.8946 33.4804 13 33.7348 13 34C13 34.2652 13.1054 34.5196 13.2929 34.7071C13.4804 34.8946 13.7348 35 14 35C14.2652 35 14.5196 34.8946 14.7071 34.7071C14.8946 34.5196 15 34.2652 15 34C15 33.2044 14.6839 32.4413 14.1213 31.8787C13.5587 31.3161 12.7956 31 12 31H4.83C4.59509 31.0002 4.36773 31.083 4.18781 31.2341C4.00788 31.3851 3.88688 31.5947 3.846 31.826C3.77721 32.6083 3.48338 33.354 3 33.973C2.67 33.707 2 32.336 2 30C2 27.664 2.67 26.292 3 26.027C3.48394 26.6457 3.77815 27.3915 3.847 28.174C3.88784 28.4052 4.00871 28.6146 4.18843 28.7656C4.36814 28.9166 4.59526 28.9996 4.83 29H12C12.7956 29 13.5587 28.6839 14.1213 28.1213C14.6839 27.5587 15 26.7956 15 26C15 25.7348 14.8946 25.4804 14.7071 25.2929C14.5196 25.1054 14.2652 25 14 25C13.7348 25 13.4804 25.1054 13.2929 25.2929C13.1054 25.4804 13 25.7348 13 26C13 26.2652 12.8946 26.5196 12.7071 26.7071C12.5196 26.8946 12.2652 27 12 27H11.245C11.7106 24.0592 12.868 21.271 14.622 18.865L15.15 19.394C15.3372 19.5815 15.4423 19.8356 15.4423 20.1005C15.4423 20.3654 15.3372 20.6195 15.15 20.807C15.0571 20.8998 14.9834 21.0101 14.9331 21.1314C14.8828 21.2527 14.8568 21.3828 14.8568 21.5141C14.8568 21.6455 14.8826 21.7756 14.9328 21.8969C14.983 22.0183 15.0567 22.1286 15.1495 22.2215C15.2423 22.3144 15.3526 22.3881 15.4739 22.4384C15.5952 22.4887 15.7253 22.5147 15.8566 22.5147C15.988 22.5147 16.1181 22.4889 16.2394 22.4387C16.3608 22.3885 16.4711 22.3148 16.564 22.222C16.8426 21.9434 17.0637 21.6127 17.2144 21.2487C17.3652 20.8847 17.4429 20.4945 17.4429 20.1005C17.4429 19.7065 17.3652 19.3163 17.2144 18.9523C17.0637 18.5883 16.8426 18.2576 16.564 17.979L11.5 12.909C11.3338 12.7429 11.1144 12.6407 10.8804 12.6202C10.6463 12.5997 10.4125 12.6623 10.22 12.797C9.62092 13.3058 8.88467 13.6259 8.104 13.717C8.058 13.297 8.553 11.854 10.204 10.201C11.855 8.548 13.281 8.057 13.72 8.101C13.625 8.88063 13.3054 9.61582 12.8 10.217C12.6651 10.4096 12.6023 10.6436 12.6228 10.8779C12.6433 11.1122 12.7457 11.3317 12.912 11.498L17.982 16.568C18.5455 17.129 19.3083 17.444 20.1035 17.444C20.8987 17.444 21.6615 17.129 22.225 16.568C22.4126 16.3805 22.5181 16.1261 22.5182 15.8609C22.5183 15.5956 22.413 15.3411 22.2255 15.1535C22.038 14.9659 21.7836 14.8604 21.5184 14.8603C21.2531 14.8602 20.9986 14.9655 20.811 15.153C20.6235 15.3405 20.3692 15.4458 20.104 15.4458C19.8388 15.4458 19.5845 15.3405 19.397 15.153L18.868 14.624C21.2729 12.8697 24.06 11.7116 27 11.245V12C27 12.2652 26.8946 12.5196 26.7071 12.7071C26.5196 12.8946 26.2652 13 26 13C25.7348 13 25.4804 13.1054 25.2929 13.2929C25.1054 13.4804 25 13.7348 25 14C25 14.2652 25.1054 14.5196 25.2929 14.7071C25.4804 14.8946 25.7348 15 26 15C26.7956 15 27.5587 14.6839 28.1213 14.1213C28.6839 13.5587 29 12.7956 29 12V4.83C29.0001 4.59491 28.9173 4.36732 28.7662 4.18719C28.6152 4.00706 28.4055 3.8859 28.174 3.845C27.3916 3.77707 26.6458 3.48353 26.027 3C26.293 2.67 27.663 2 30 2C32.337 2 33.707 2.67 33.973 3C33.3543 3.48389 32.6085 3.77778 31.826 3.846C31.5947 3.88688 31.3851 4.00788 31.2341 4.18781C31.083 4.36773 31.0002 4.59509 31 4.83V12C31 12.7956 31.3161 13.5587 31.8787 14.1213C32.4413 14.6839 33.2044 15 34 15C34.2652 15 34.5196 14.8946 34.7071 14.7071C34.8946 14.5196 35 14.2652 35 14C35 13.7348 34.8946 13.4804 34.7071 13.2929C34.5196 13.1054 34.2652 13 34 13C33.7348 13 33.4804 12.8946 33.2929 12.7071C33.1054 12.5196 33 12.2652 33 12V11.245C35.9408 11.7106 38.729 12.868 41.135 14.622L40.606 15.15C40.4185 15.3375 40.1642 15.4428 39.899 15.4428C39.6338 15.4428 39.3795 15.3375 39.192 15.15C39.0044 14.9625 38.7499 14.8572 38.4846 14.8573C38.2194 14.8574 37.965 14.9629 37.7775 15.1505C37.59 15.3381 37.4847 15.5926 37.4848 15.8579C37.4849 16.1231 37.5904 16.3775 37.778 16.565C38.3414 17.1263 39.1043 17.4414 39.8995 17.4414C40.6948 17.4414 41.4576 17.1263 42.021 16.565L47.091 11.495C47.2573 11.3287 47.3597 11.1092 47.3802 10.8749C47.4007 10.6406 47.3379 10.4066 47.203 10.214C46.6976 9.61282 46.378 8.87763 46.283 8.098C46.707 8.057 48.146 8.549 49.799 10.198C51.452 11.847 51.947 13.298 51.899 13.713C51.1184 13.6216 50.3822 13.3015 49.783 12.793C49.5905 12.6583 49.3567 12.5957 49.1226 12.6162C48.8886 12.6367 48.6692 12.7389 48.503 12.905L43.434 17.975C43.1554 18.2536 42.9343 18.5843 42.7836 18.9483C42.6328 19.3123 42.5551 19.7025 42.5551 20.0965C42.5551 20.4905 42.6328 20.8807 42.7836 21.2447C42.9343 21.6087 43.1554 21.9394 43.434 22.218C43.6216 22.4055 43.8761 22.5108 44.1414 22.5107C44.4066 22.5106 44.661 22.4051 44.8485 22.2175C45.036 22.0299 45.1413 21.7754 45.1412 21.5101C45.1411 21.2449 45.0356 20.9905 44.848 20.803C44.6608 20.6155 44.5557 20.3614 44.5557 20.0965C44.5557 19.8316 44.6608 19.5775 44.848 19.39L45.376 18.861C47.1313 21.268 48.2894 24.0576 48.755 27H48C47.7348 27 47.4804 26.8946 47.2929 26.7071C47.1054 26.5196 47 26.2652 47 26C47 25.7348 46.8946 25.4804 46.7071 25.2929C46.5196 25.1054 46.2652 25 46 25C45.7348 25 45.4804 25.1054 45.2929 25.2929C45.1054 25.4804 45 25.7348 45 26C45 26.7956 45.3161 27.5587 45.8787 28.1213C46.4413 28.6839 47.2044 29 48 29H55.17C55.4049 28.9998 55.6323 28.917 55.8122 28.7659C55.9921 28.6149 56.1131 28.4053 56.154 28.174C56.2228 27.3917 56.5166 26.646 57 26.027C57.329 26.293 58 27.664 58 30C58 32.336 57.33 33.708 57 33.973Z" fill="white"/>
<path d="M36 19C35.0111 19 34.0444 19.2932 33.2222 19.8427C32.3999 20.3921 31.759 21.173 31.3806 22.0866C31.0022 23.0002 30.9031 24.0055 31.0961 24.9755C31.289 25.9454 31.7652 26.8363 32.4645 27.5355C33.1637 28.2348 34.0546 28.711 35.0245 28.9039C35.9945 29.0969 36.9998 28.9978 37.9134 28.6194C38.8271 28.241 39.6079 27.6001 40.1574 26.7779C40.7068 25.9556 41 24.9889 41 24C40.9984 22.6744 40.4711 21.4036 39.5338 20.4662C38.5964 19.5289 37.3256 19.0016 36 19V19ZM36 27C35.4067 27 34.8266 26.8241 34.3333 26.4944C33.8399 26.1648 33.4554 25.6962 33.2284 25.1481C33.0013 24.5999 32.9419 23.9967 33.0576 23.4147C33.1734 22.8328 33.4591 22.2982 33.8787 21.8787C34.2982 21.4591 34.8328 21.1734 35.4147 21.0576C35.9967 20.9419 36.5999 21.0013 37.1481 21.2284C37.6962 21.4554 38.1648 21.8399 38.4944 22.3333C38.8241 22.8266 39 23.4067 39 24C39 24.7956 38.6839 25.5587 38.1213 26.1213C37.5587 26.6839 36.7957 27 36 27Z" fill="white"/>
<path d="M23 29C22.2089 29 21.4355 29.2346 20.7777 29.6741C20.1199 30.1136 19.6072 30.7384 19.3045 31.4693C19.0017 32.2002 18.9225 33.0044 19.0769 33.7804C19.2312 34.5563 19.6122 35.269 20.1716 35.8284C20.731 36.3878 21.4437 36.7688 22.2196 36.9231C22.9956 37.0775 23.7998 36.9983 24.5307 36.6955C25.2616 36.3928 25.8864 35.8801 26.3259 35.2223C26.7654 34.5645 27 33.7911 27 33C27 31.9391 26.5786 30.9217 25.8284 30.1716C25.0783 29.4214 24.0609 29 23 29ZM23 35C22.6044 35 22.2178 34.8827 21.8889 34.6629C21.56 34.4432 21.3036 34.1308 21.1522 33.7654C21.0009 33.3999 20.9613 32.9978 21.0384 32.6098C21.1156 32.2219 21.3061 31.8655 21.5858 31.5858C21.8655 31.3061 22.2219 31.1156 22.6098 31.0384C22.9978 30.9613 23.3999 31.0009 23.7654 31.1522C24.1308 31.3036 24.4432 31.56 24.6629 31.8889C24.8827 32.2178 25 32.6044 25 33C25 33.5304 24.7893 34.0391 24.4142 34.4142C24.0391 34.7893 23.5304 35 23 35Z" fill="white"/>
<path d="M23 26C23.5933 26 24.1734 25.8241 24.6667 25.4944C25.1601 25.1648 25.5446 24.6962 25.7716 24.1481C25.9987 23.5999 26.0581 22.9967 25.9424 22.4147C25.8266 21.8328 25.5409 21.2982 25.1213 20.8787C24.7018 20.4591 24.1672 20.1734 23.5853 20.0576C23.0033 19.9419 22.4001 20.0013 21.8519 20.2284C21.3038 20.4554 20.8352 20.8399 20.5056 21.3333C20.1759 21.8266 20 22.4067 20 23C20 23.7957 20.3161 24.5587 20.8787 25.1213C21.4413 25.6839 22.2044 26 23 26V26ZM23 22C23.1978 22 23.3911 22.0586 23.5556 22.1685C23.72 22.2784 23.8482 22.4346 23.9239 22.6173C23.9996 22.8 24.0194 23.0011 23.9808 23.1951C23.9422 23.3891 23.847 23.5673 23.7071 23.7071C23.5673 23.847 23.3891 23.9422 23.1951 23.9808C23.0011 24.0194 22.8 23.9996 22.6173 23.9239C22.4346 23.8482 22.2784 23.72 22.1685 23.5556C22.0586 23.3911 22 23.1978 22 23C22 22.7348 22.1054 22.4804 22.2929 22.2929C22.4804 22.1054 22.7348 22 23 22Z" fill="white"/>
<path d="M30 38C29.4067 38 28.8266 38.1759 28.3333 38.5056C27.8399 38.8352 27.4554 39.3038 27.2284 39.852C27.0013 40.4001 26.9419 41.0033 27.0576 41.5853C27.1734 42.1672 27.4591 42.7018 27.8787 43.1213C28.2982 43.5409 28.8328 43.8266 29.4147 43.9424C29.9967 44.0581 30.5999 43.9987 31.148 43.7716C31.6962 43.5446 32.1648 43.1601 32.4944 42.6667C32.8241 42.1734 33 41.5933 33 41C33 40.2044 32.6839 39.4413 32.1213 38.8787C31.5587 38.3161 30.7957 38 30 38ZM30 42C29.8022 42 29.6089 41.9414 29.4444 41.8315C29.28 41.7216 29.1518 41.5654 29.0761 41.3827C29.0004 41.2 28.9806 40.9989 29.0192 40.8049C29.0578 40.6109 29.153 40.4327 29.2929 40.2929C29.4327 40.153 29.6109 40.0578 29.8049 40.0192C29.9989 39.9806 30.2 40.0004 30.3827 40.0761C30.5654 40.1518 30.7216 40.28 30.8315 40.4444C30.9414 40.6089 31 40.8022 31 41C31 41.2652 30.8946 41.5196 30.7071 41.7071C30.5196 41.8946 30.2652 42 30 42Z" fill="white"/>
<path d="M37 32C36.4067 32 35.8266 32.1759 35.3333 32.5056C34.8399 32.8352 34.4554 33.3038 34.2284 33.852C34.0013 34.4001 33.9419 35.0033 34.0576 35.5853C34.1734 36.1672 34.4591 36.7018 34.8787 37.1213C35.2982 37.5409 35.8328 37.8266 36.4147 37.9424C36.9967 38.0581 37.5999 37.9987 38.148 37.7716C38.6962 37.5446 39.1648 37.1601 39.4944 36.6667C39.8241 36.1734 40 35.5933 40 35C40 34.2044 39.6839 33.4413 39.1213 32.8787C38.5587 32.3161 37.7957 32 37 32ZM37 36C36.8022 36 36.6089 35.9414 36.4444 35.8315C36.28 35.7216 36.1518 35.5654 36.0761 35.3827C36.0004 35.2 35.9806 34.9989 36.0192 34.8049C36.0578 34.6109 36.153 34.4327 36.2929 34.2929C36.4327 34.153 36.6109 34.0578 36.8049 34.0192C36.9989 33.9806 37.2 34.0004 37.3827 34.0761C37.5654 34.1518 37.7216 34.28 37.8315 34.4444C37.9414 34.6089 38 34.8022 38 35C38 35.2652 37.8946 35.5196 37.7071 35.7071C37.5196 35.8946 37.2652 36 37 36Z" fill="white"/>
</svg>
