<svg width="65" height="65" viewBox="0 0 65 65" fill="none" xmlns="http://www.w3.org/2000/svg">
<path d="M31.8842 31.7473H33.1158C33.5263 31.7473 33.8 31.3367 33.6631 30.9946L32.9105 29.2157C32.7737 28.8736 32.2947 28.8736 32.1579 29.2157L31.4053 30.9946C31.2 31.3367 31.4737 31.7473 31.8842 31.7473Z" fill="white"/>
<path d="M35.2368 28.6C36.6053 28.7368 37.0842 28.0526 37.2211 27.1631C37.3579 26.2737 36.8789 25.4526 35.7158 25.2473C34.5526 25.1105 33.8684 25.7947 33.7316 26.6842C33.5947 27.5737 33.8684 28.4631 35.2368 28.6Z" fill="white"/>
<path d="M29.7631 28.6C31.1315 28.4631 31.4052 27.6421 31.2684 26.6842C31.1315 25.7947 30.5157 25.1105 29.2841 25.2473C28.121 25.3842 27.642 26.2052 27.7789 27.1631C27.9157 28.0526 28.3947 28.7368 29.7631 28.6Z" fill="white"/>
<path d="M60.2789 27.7789C58.1579 27.7789 56.3789 29.2158 55.7632 31.2H51.7947C51.5211 26.8211 49.7421 22.8526 47.0737 19.7737L49.8789 16.9684C50.5632 17.3105 51.3158 17.5842 52.1368 17.5842C54.7368 17.5842 56.8579 15.4632 56.8579 12.8632C56.8579 10.2632 54.7368 8.14211 52.1368 8.14211C49.5368 8.14211 47.4158 10.2632 47.4158 12.8632C47.4158 13.6842 47.6211 14.4368 48.0316 15.1211L45.2263 17.9263C42.1474 15.1895 38.1789 13.4789 33.8 13.2053V9.23684C35.7842 8.68947 37.2211 6.91053 37.2211 4.72105C37.2211 2.12105 35.1 0 32.5 0C29.9 0 27.7789 2.12105 27.7789 4.72105C27.7789 6.84211 29.2158 8.62105 31.2 9.23684V13.2053C26.8211 13.4789 22.8526 15.2579 19.7737 17.9263L16.9684 15.1211C17.3105 14.4368 17.5842 13.6842 17.5842 12.8632C17.5842 10.2632 15.4632 8.14211 12.8632 8.14211C10.2632 8.14211 8.14211 10.2632 8.14211 12.8632C8.14211 15.4632 10.2632 17.5842 12.8632 17.5842C13.6842 17.5842 14.4368 17.3789 15.1211 16.9684L17.9263 19.7737C15.1895 22.8526 13.4789 26.8211 13.2053 31.2H9.23684C8.68947 29.2158 6.91053 27.7789 4.72105 27.7789C2.12105 27.7789 0 29.9 0 32.5C0 35.1 2.12105 37.2211 4.72105 37.2211C6.84211 37.2211 8.62105 35.7842 9.23684 33.8H13.2053C13.4789 38.1789 15.2579 42.1474 17.9263 45.2263L15.1211 48.0316C14.4368 47.6895 13.6842 47.4158 12.8632 47.4158C10.2632 47.4158 8.14211 49.5368 8.14211 52.1368C8.14211 54.7368 10.2632 56.8579 12.8632 56.8579C15.4632 56.8579 17.5842 54.7368 17.5842 52.1368C17.5842 51.3158 17.3789 50.5632 16.9684 49.8789L19.7737 47.0737C22.8526 49.8105 26.8211 51.5211 31.2 51.7947V55.7632C29.2158 56.3105 27.7789 58.0895 27.7789 60.2789C27.7789 62.8789 29.9 65 32.5 65C35.1 65 37.2211 62.8789 37.2211 60.2789C37.2211 58.1579 35.7842 56.3789 33.8 55.7632V51.7947C38.1789 51.5211 42.1474 49.7421 45.2263 47.0737L48.0316 49.8789C47.6895 50.5632 47.4158 51.3158 47.4158 52.1368C47.4158 54.7368 49.5368 56.8579 52.1368 56.8579C54.7368 56.8579 56.8579 54.7368 56.8579 52.1368C56.8579 49.5368 54.7368 47.4158 52.1368 47.4158C51.3158 47.4158 50.5632 47.6211 49.8789 48.0316L47.0737 45.2263C49.8105 42.1474 51.5211 38.1789 51.7947 33.8H55.7632C56.3105 35.7842 58.0895 37.2211 60.2789 37.2211C62.8789 37.2211 65 35.1 65 32.5C65 29.9 62.8789 27.7789 60.2789 27.7789ZM32.5 18.7474C36.4684 18.7474 39.6842 20.6632 39.6842 25.3842C39.6842 28.0526 38.6579 30.0368 37.0842 31.2684C36.8105 31.4737 36.6737 31.7474 36.6053 32.0895L36.5368 33.1158C36.4684 33.7316 36.0579 34.2105 35.4421 34.4158C33.5263 34.8947 31.4737 34.8947 29.5579 34.4158C28.9421 34.2789 28.5316 33.7316 28.4632 33.1158L28.3947 32.0895C28.3947 31.7474 28.1895 31.4737 27.9158 31.2684C26.3421 30.0368 25.3158 28.0526 25.3158 25.3842C25.3158 20.5947 28.5316 18.7474 32.5 18.7474ZM42.1474 41.7368C42.0789 42.0105 41.9421 42.2842 41.7368 42.4895C42.0105 42.9 42.0105 43.3105 41.8737 43.7211C41.5316 44.3368 40.9842 44.6105 39.8211 44.0632C39.2737 43.7895 38.9316 43.3105 38.7263 42.9684C38.5211 42.6263 38.1789 42.3526 37.8368 42.2158L32.5 40.2316L27.1632 42.1474C26.7526 42.2842 26.4789 42.5579 26.2737 42.9C26.0684 43.2421 25.7263 43.7895 25.1789 43.9947C24.0158 44.5421 23.4684 44.2684 23.1263 43.6526C22.9211 43.2421 22.9211 42.8316 23.2632 42.4211C23.0579 42.2158 22.9211 42.0105 22.8526 41.6684C22.7158 40.9842 22.9895 40.3684 23.8789 40.1632C24.2895 40.0947 24.7684 40.2316 25.1789 40.3684C25.5895 40.5053 26 40.5053 26.4105 40.3684L29.7632 39.1368L26.8895 38.1105C26.4789 37.9737 26.0684 37.9737 25.7263 38.1105C25.3158 38.2474 24.7684 38.3842 24.2211 38.2474C22.9895 37.9737 22.7158 37.3579 22.8526 36.6737C22.9211 36.2632 23.2632 35.9211 23.7421 35.7842C23.6737 35.5105 23.7421 35.2368 23.8789 34.9632C24.2211 34.3474 24.8368 34.0737 25.5895 34.4842C25.9316 34.6895 26.2053 35.0316 26.4105 35.4421C26.6158 35.8526 26.9579 36.1263 27.3684 36.3316L32.5 38.1789L37.6316 36.3316C38.0421 36.1947 38.3842 35.8526 38.5895 35.4421C38.7947 35.1 39 34.6895 39.4105 34.4842C40.2316 34.0737 40.8474 34.4158 41.1211 34.9632C41.2579 35.2368 41.3263 35.5105 41.2579 35.7842C41.7368 35.9211 42.0105 36.1947 42.1474 36.6737C42.2842 37.3579 42.0105 37.9737 40.7789 38.2474C40.2316 38.3842 39.6842 38.2474 39.2737 38.1105C38.8632 37.9737 38.4526 37.9737 38.1105 38.1105L35.2368 39.2053L38.5895 40.4368C39 40.5737 39.4105 40.5737 39.8211 40.4368C40.2316 40.3 40.7105 40.0947 41.1211 40.2316C42.0105 40.3684 42.2842 41.0526 42.1474 41.7368Z" fill="white"/>
</svg>
