<svg width="51" height="52" viewBox="0 0 51 52" fill="none" xmlns="http://www.w3.org/2000/svg">
<path d="M25.46 11.7C26.617 11.6998 27.7479 11.3565 28.7098 10.7136C29.6717 10.0707 30.4214 9.15697 30.864 8.08801C31.3066 7.01904 31.4223 5.84283 31.1965 4.70811C30.9706 3.57339 30.4134 2.53111 29.5952 1.71307C28.777 0.895037 27.7347 0.337978 26.5999 0.112336C25.4651 -0.113307 24.289 0.002601 23.2201 0.445403C22.1512 0.888205 21.2376 1.63802 20.5948 2.60002C19.9521 3.56203 19.609 4.69302 19.609 5.85C19.6109 7.40112 20.2279 8.88817 21.3248 9.98488C22.4217 11.0816 23.9089 11.6984 25.46 11.7ZM25.46 3C26.0236 3.0002 26.5746 3.16752 27.0431 3.4808C27.5117 3.79408 27.8768 4.23926 28.0923 4.76005C28.3079 5.28083 28.3642 5.85384 28.2541 6.40662C28.144 6.9594 27.8725 7.46713 27.4739 7.86561C27.0753 8.26409 26.5675 8.53543 26.0146 8.64531C25.4618 8.7552 24.8888 8.6987 24.3681 8.48296C23.8474 8.26722 23.4024 7.90193 23.0892 7.43327C22.7761 6.96462 22.609 6.41364 22.609 5.85C22.6098 5.09421 22.9105 4.36961 23.445 3.83527C23.9795 3.30094 24.7042 3.00053 25.46 3V3ZM10.298 14.592C11.4553 14.592 12.5865 14.2488 13.5487 13.6059C14.511 12.9629 15.2609 12.049 15.7037 10.9799C16.1465 9.91066 16.2623 8.73417 16.0365 7.59916C15.8107 6.46415 15.2533 5.4216 14.4349 4.60337C13.6166 3.78513 12.5739 3.22796 11.4389 3.00231C10.3038 2.77666 9.12734 2.89267 8.05823 3.33567C6.98911 3.77867 6.07538 4.52876 5.43258 5.49109C4.78979 6.45341 4.4468 7.58474 4.447 8.742C4.44912 10.293 5.06627 11.7799 6.16312 12.8766C7.25996 13.9733 8.74696 14.5902 10.298 14.592V14.592ZM10.298 5.892C10.8619 5.892 11.4131 6.05921 11.8819 6.37248C12.3508 6.68575 12.7162 7.13102 12.932 7.65197C13.1478 8.17292 13.2042 8.74616 13.0942 9.2992C12.9842 9.85224 12.7127 10.3602 12.314 10.759C11.9152 11.1577 11.4072 11.4292 10.8542 11.5392C10.3012 11.6492 9.72792 11.5928 9.20697 11.377C8.68602 11.1612 8.24075 10.7958 7.92748 10.3269C7.61421 9.85809 7.447 9.30688 7.447 8.743C7.44727 7.98686 7.74769 7.26175 8.28227 6.72698C8.81685 6.19221 9.54186 5.89153 10.298 5.891V5.892ZM50.92 22.177V32.166C50.9182 33.1957 50.564 34.1937 49.9163 34.9941C49.2687 35.7946 48.3666 36.3493 47.36 36.566V50.416C47.36 50.8138 47.202 51.1954 46.9207 51.4767C46.6394 51.758 46.2578 51.916 45.86 51.916C45.4622 51.916 45.0806 51.758 44.7993 51.4767C44.518 51.1954 44.36 50.8138 44.36 50.416V35.166C44.36 34.7682 44.518 34.3866 44.7993 34.1053C45.0806 33.824 45.4622 33.666 45.86 33.666H46.42C46.8178 33.666 47.1994 33.508 47.4807 33.2267C47.762 32.9454 47.92 32.5638 47.92 32.166V22.177C47.92 21.2487 47.5513 20.3585 46.8949 19.7021C46.2385 19.0458 45.3483 18.677 44.42 18.677H37.2C36.6168 18.6769 36.0431 18.8241 35.532 19.105L37.16 32.019C37.2023 32.41 37.0893 32.8019 36.8455 33.1104C36.6016 33.4189 36.2464 33.6193 35.8562 33.6685C35.4661 33.7177 35.0722 33.6116 34.7594 33.3733C34.4467 33.1349 34.24 32.7832 34.184 32.394L32.439 18.558C32.3326 17.7122 31.9211 16.9343 31.2818 16.3704C30.6426 15.8064 29.8195 15.4952 28.967 15.495H21.753C20.8247 15.495 19.9345 15.8638 19.2781 16.5201C18.6217 17.1765 18.253 18.0667 18.253 18.995V28.989C18.253 29.3868 18.411 29.7684 18.6923 30.0497C18.9736 30.331 19.3552 30.489 19.753 30.489H20.307C20.7048 30.489 21.0864 30.647 21.3677 30.9283C21.649 31.2096 21.807 31.5912 21.807 31.989V48.916H23.96V33.427C23.96 33.0292 24.118 32.6476 24.3993 32.3663C24.6806 32.085 25.0622 31.927 25.46 31.927C25.8578 31.927 26.2394 32.085 26.5207 32.3663C26.802 32.6476 26.96 33.0292 26.96 33.427V48.916H29.36V32.206C29.36 31.8082 29.518 31.4266 29.7993 31.1453C30.0806 30.864 30.4622 30.706 30.86 30.706C31.2578 30.706 31.6394 30.864 31.9207 31.1453C32.202 31.4266 32.36 31.8082 32.36 32.206V48.916H33.81V36.947C33.81 36.5492 33.968 36.1676 34.2493 35.8863C34.5306 35.605 34.9122 35.447 35.31 35.447C35.7078 35.447 36.0894 35.605 36.3707 35.8863C36.652 36.1676 36.81 36.5492 36.81 36.947V48.916H39.339C39.7368 48.916 40.1184 49.074 40.3997 49.3553C40.681 49.6366 40.839 50.0182 40.839 50.416C40.839 50.8138 40.681 51.1954 40.3997 51.4767C40.1184 51.758 39.7368 51.916 39.339 51.916H11.581C11.1832 51.916 10.8016 51.758 10.5203 51.4767C10.239 51.1954 10.081 50.8138 10.081 50.416C10.081 50.0182 10.239 49.6366 10.5203 49.3553C10.8016 49.074 11.1832 48.916 11.581 48.916H14.11V35.387C14.11 34.9892 14.268 34.6076 14.5493 34.3263C14.8306 34.045 15.2122 33.887 15.61 33.887C16.0078 33.887 16.3894 34.045 16.6707 34.3263C16.952 34.6076 17.11 34.9892 17.11 35.387V48.916H18.81V33.39C17.8044 33.1723 16.9036 32.6171 16.2571 31.8167C15.6106 31.0163 15.2573 30.0189 15.256 28.99V19.044C14.78 18.8055 14.2554 18.6799 13.723 18.677H6.5C5.57174 18.677 4.6815 19.0458 4.02513 19.7021C3.36875 20.3585 3 21.2487 3 22.177V32.166C3 32.5638 3.15804 32.9454 3.43934 33.2267C3.72064 33.508 4.10218 33.666 4.5 33.666H5.06C5.45783 33.666 5.83936 33.824 6.12066 34.1053C6.40196 34.3866 6.56 34.7682 6.56 35.166V50.416C6.56 50.8138 6.40196 51.1954 6.12066 51.4767C5.83936 51.758 5.45783 51.916 5.06 51.916C4.66218 51.916 4.28064 51.758 3.99934 51.4767C3.71804 51.1954 3.56 50.8138 3.56 50.416V36.568C2.55341 36.3513 1.6513 35.7966 1.00365 34.9961C0.356005 34.1957 0.00182761 33.1977 0 32.168V22.177C0.00211703 20.4537 0.687616 18.8017 1.90614 17.5831C3.12467 16.3646 4.77674 15.6791 6.5 15.677H13.72C14.4818 15.6796 15.2371 15.8171 15.951 16.083C16.4906 15.0065 17.3187 14.1012 18.3428 13.4678C19.3669 12.8344 20.5469 12.498 21.751 12.496H28.965C30.1833 12.4985 31.3764 12.8429 32.4086 13.4899C33.4408 14.1369 34.2708 15.0606 34.804 16.156C35.5643 15.8456 36.3768 15.683 37.198 15.677H44.418C46.1416 15.6786 47.7942 16.3639 49.0131 17.5824C50.2321 18.801 50.9179 20.4534 50.92 22.177V22.177ZM40.62 14.592C41.7773 14.5922 42.9087 14.2492 43.871 13.6063C44.8334 12.9635 45.5835 12.0497 46.0264 10.9805C46.4694 9.91137 46.5854 8.73485 46.3596 7.59977C46.1339 6.4647 45.5766 5.42206 44.7583 4.60372C43.9399 3.78538 42.8973 3.22811 41.7622 3.00238C40.6272 2.77665 39.4506 2.8926 38.3815 3.33557C37.3123 3.77855 36.3985 4.52864 35.7557 5.49098C35.1128 6.45333 34.7698 7.5847 34.77 8.742C34.7721 10.2932 35.3894 11.7803 36.4865 12.8769C37.5835 13.9736 39.0708 14.5904 40.622 14.592H40.62ZM40.62 5.892C41.1839 5.8918 41.7352 6.05884 42.2042 6.372C42.6732 6.68515 43.0388 7.13034 43.2547 7.65128C43.4706 8.17221 43.5272 8.74549 43.4173 9.29859C43.3074 9.8517 43.036 10.3598 42.6373 10.7586C42.2386 11.1574 41.7306 11.4291 41.1776 11.5391C40.6245 11.6492 40.0512 11.5928 39.5302 11.3771C39.0092 11.1613 38.5639 10.7959 38.2505 10.327C37.9372 9.85817 37.77 9.30692 37.77 8.743C37.7705 7.98677 38.0712 7.26166 38.6059 6.72692C39.1407 6.19218 39.8658 5.89153 40.622 5.891L40.62 5.892Z" fill="white"/>
</svg>
