<svg width="62" height="62" viewBox="0 0 62 62" fill="none" xmlns="http://www.w3.org/2000/svg">
<path d="M30.431 51.822C30.602 51.941 30.801 52 31 52C31.199 52 31.398 51.941 31.569 51.822L40.261 45.804C43.229 43.75 45 40.37 45 36.76V20C45 19.448 44.552 19 44 19H43.879C39.676 19 35.584 17.519 32.356 14.828L31.641 14.232C31.27 13.922 30.732 13.922 30.361 14.232L29.646 14.828C26.417 17.519 22.324 19 18.121 19H18C17.448 19 17 19.448 17 20V36.76C17 40.369 18.771 43.75 21.739 45.804L30.431 51.822ZM19 36.76V20.98C23.359 20.787 27.563 19.166 30.925 16.364L31 16.302L31.075 16.364C34.436 19.166 38.641 20.787 43 20.98V36.76C43 39.713 41.551 42.479 39.123 44.16L31 49.784L22.877 44.16C20.449 42.479 19 39.713 19 36.76Z" fill="white"/>
<path d="M31 0C23.319 0 16.014 2.8 10.319 7.905L7.707 5.293C7.42 5.006 6.992 4.92 6.617 5.076C6.244 5.231 6 5.596 6 6V16C6 16.552 6.448 17 7 17H17C17.404 17 17.769 16.756 17.924 16.383C18.079 16.009 17.993 15.579 17.707 15.293L14.57 12.156C19.125 8.179 24.92 6 31 6C44.785 6 56 17.215 56 31C56 44.785 44.785 56 31 56C17.215 56 6 44.785 6 31C6 26.986 6.974 22.996 8.815 19.462L7.042 18.537C5.052 22.356 4 26.665 4 31C4 45.888 16.112 58 31 58C45.888 58 58 45.888 58 31C58 16.112 45.888 4 31 4C24.062 4 17.469 6.626 12.434 11.396C12.238 11.582 12.126 11.839 12.122 12.108C12.119 12.378 12.224 12.638 12.415 12.829L14.586 15H8V8.414L9.585 10C9.969 10.385 10.59 10.392 10.982 10.017C16.4 4.847 23.509 2 31 2C46.991 2 60 15.009 60 31C60 46.991 46.991 60 31 60C15.009 60 2 46.991 2 31C2 26.563 2.976 22.306 4.899 18.345L3.1 17.471C1.043 21.707 0 26.258 0 31C0 48.093 13.907 62 31 62C48.093 62 62 48.093 62 31C62 13.907 48.093 0 31 0Z" fill="white"/>
<path d="M31 43C36.514 43 41 38.514 41 33C41 27.486 36.514 23 31 23C25.486 23 21 27.486 21 33C21 38.514 25.486 43 31 43ZM31 25C35.411 25 39 28.589 39 33C39 37.411 35.411 41 31 41C26.589 41 23 37.411 23 33C23 28.589 26.589 25 31 25Z" fill="white"/>
<path d="M31 39.0001C31.067 39.0001 31.134 38.9931 31.201 38.9791C31.53 38.9121 31.804 38.683 31.929 38.371L35.929 28.3711L34.072 27.6281L30.635 36.2201L27.707 33.2921L26.293 34.7061L30.293 38.7061C30.482 38.8961 30.737 39.0001 31 39.0001Z" fill="white"/>
</svg>
