<svg width="146" height="137" viewBox="0 0 146 137" fill="none" xmlns="http://www.w3.org/2000/svg">
<path d="M13.6008 97.4717C13.9799 97.4715 14.353 97.3761 14.6858 97.1943C15.0185 97.0126 15.3004 96.7502 15.5055 96.4313C15.7107 96.1125 15.8326 95.7472 15.86 95.369C15.8874 94.9908 15.8196 94.6118 15.6626 94.2667C11.5808 86.0968 9.32982 77.1351 9.06648 68.0061C9.06987 63.2608 9.60612 58.531 10.6652 53.9054L16.7727 58.486C17.0428 58.6875 17.3541 58.8266 17.6844 58.8934C18.0147 58.9602 18.3557 58.953 18.6829 58.8722L25.7128 57.1148L27.3153 61.9235C27.4748 62.4015 27.7891 62.8127 28.2084 63.0922L34.6307 67.3742L38.356 72.962L36.3329 81.0556C36.1946 81.6096 36.2704 82.1954 36.5451 82.6959C36.8198 83.1965 37.2732 83.5751 37.8148 83.756L43.0653 85.5057V90.672C43.0654 91.2731 43.3043 91.8495 43.7294 92.2745L50.5292 99.0742C50.6345 99.18 50.7502 99.2749 50.8744 99.3575L56.9449 103.405L58.999 111.621C59.0991 112.02 59.3053 112.383 59.5956 112.674C59.886 112.964 60.2497 113.17 60.648 113.27L68.8644 115.324L72.9117 121.395C73.1912 121.814 73.6024 122.128 74.0804 122.288L80.8802 124.554C81.3979 124.727 81.9604 124.707 82.4645 124.498C82.9687 124.289 83.3806 123.906 83.6249 123.418L85.8914 118.885C86.0246 118.618 86.104 118.328 86.1251 118.031C86.1462 117.734 86.1085 117.436 86.0143 117.154L84.0443 111.245L85.7266 107.88L89.9995 103.607C90.2481 103.359 90.4356 103.056 90.5473 102.722L92.8139 95.9223C92.9711 95.4505 92.9689 94.9401 92.8075 94.4698C92.6461 93.9994 92.3346 93.5951 91.9209 93.3192L86.4503 89.6725L88.3295 82.1556C88.4445 81.6931 88.4116 81.2062 88.2355 80.7633L83.7023 69.4304C83.5065 68.9379 83.1439 68.5299 82.6778 68.2776C82.2117 68.0253 81.6718 67.9449 81.1524 68.0503L70.8133 70.1177L62.5582 63.9267C62.3631 63.7807 62.1461 63.6668 61.9152 63.5891L48.6034 59.1523L42.7034 55.2189L39.0379 44.2215L41.8125 42.8347C42.105 42.6885 42.3623 42.4807 42.5669 42.2257C42.7715 41.9707 42.9185 41.6744 42.9978 41.3572L44.7144 34.49L51.5816 36.2065C51.888 36.2838 52.2072 36.2959 52.5186 36.242C52.8299 36.188 53.1265 36.0692 53.389 35.8933L60.1887 31.3601C60.313 31.2775 60.4287 31.1826 60.534 31.0768L65.0672 26.5436C65.4035 26.2072 65.6255 25.7736 65.7018 25.304C65.7781 24.8345 65.7047 24.3529 65.4922 23.9273L63.2975 19.538L61.0818 12.891C60.9105 12.378 60.5616 11.9432 60.098 11.6648L53.2386 7.54908C59.4748 5.55356 65.9832 4.539 72.5309 4.54168C86.7702 4.30288 100.665 8.92712 111.922 17.6509C112.155 17.8389 112.423 17.9789 112.71 18.0627C112.997 18.1466 113.298 18.1728 113.596 18.1397C113.893 18.1066 114.181 18.0148 114.443 17.8698C114.705 17.7248 114.936 17.5294 115.121 17.2948C115.307 17.0602 115.445 16.7911 115.526 16.5031C115.608 16.215 115.631 15.9137 115.595 15.6165C115.56 15.3193 115.466 15.0321 115.318 14.7716C115.171 14.511 114.973 14.2822 114.737 14.0983C102.682 4.73572 87.7931 -0.234555 72.5309 0.00850987C54.5031 0.0289427 37.2195 7.19952 24.4719 19.9471C11.7243 32.6947 4.55374 49.9783 4.53331 68.0061C4.78948 77.7836 7.17973 87.3869 11.5367 96.1437C11.7168 96.5399 12.0072 96.876 12.3733 97.1115C12.7393 97.347 13.1655 97.4721 13.6008 97.4717V97.4717ZM47.7881 9.56528L57.0466 15.1198L59.0476 21.125C59.0819 21.2265 59.1229 21.3256 59.1705 21.4216L60.7066 24.4939L57.4871 27.7123L51.7089 31.5648L43.6153 29.5417C43.0322 29.3969 42.4154 29.4891 41.9001 29.7982C41.3848 30.1073 41.013 30.608 40.8662 31.1907L38.8531 39.2454L35.2517 41.046C34.7639 41.2904 34.3804 41.7023 34.1717 42.2065C33.9629 42.7106 33.9428 43.273 34.1151 43.7907L38.6483 57.3903C38.8078 57.8682 39.1221 58.2795 39.5414 58.559L46.3411 63.0921C46.5087 63.2037 46.6903 63.2926 46.8812 63.3566L60.1321 67.7736L68.9041 74.3521C69.1594 74.5433 69.452 74.6786 69.7631 74.7492C70.0741 74.8197 70.3965 74.824 70.7092 74.7616L80.1928 72.8647L83.7543 81.7672L81.6648 90.1219C81.5514 90.5754 81.581 91.053 81.7497 91.4891C81.9183 91.9252 82.2176 92.2984 82.6066 92.5578L87.9654 96.1303L86.416 100.781L82.2614 104.936C82.0889 105.108 81.9454 105.306 81.8364 105.524L79.5698 110.058C79.4366 110.324 79.3572 110.614 79.3361 110.911C79.3151 111.208 79.3527 111.506 79.4469 111.789L81.4169 117.697L80.4496 119.632L76.2518 118.233L72.1501 112.081C71.8373 111.612 71.3611 111.276 70.8143 111.139L63.0671 109.202L61.1303 101.455C60.9932 100.908 60.6574 100.432 60.1885 100.119L53.5758 95.7098L47.5985 89.7335V83.8722C47.5985 83.3965 47.4489 82.9329 47.1708 82.547C46.8927 82.161 46.5003 81.8724 46.049 81.7218L41.2403 80.1194L42.9978 73.0894C43.0743 72.783 43.086 72.4639 43.0321 72.1527C42.9782 71.8414 42.8598 71.5449 42.6846 71.2821L38.1514 64.4823C37.9854 64.2334 37.7718 64.0197 37.5228 63.8537L31.3704 59.7521L29.3496 53.6894C29.1688 53.1477 28.7903 52.6942 28.2896 52.4195C27.789 52.1447 27.2031 52.069 26.6491 52.2075L18.6298 54.2129L11.9176 49.1788C14.6756 40.3743 19.3109 32.2731 25.5038 25.434C31.6967 18.5949 39.2997 13.1808 47.7881 9.56528V9.56528Z" fill="url(#paint0_linear)"/>
<path d="M132.869 40.9765C132.313 41.2047 131.87 41.6443 131.638 42.1989C131.406 42.7535 131.404 43.3775 131.632 43.9337C134.639 51.5973 136.122 59.7745 135.995 68.0062C135.995 68.1439 135.986 68.2793 135.985 68.4168L127.075 70.1987L120.846 68.1225C120.447 67.9889 120.018 67.9693 119.609 68.0661C119.199 68.1629 118.824 68.3722 118.527 68.6703L114.152 73.0441L107.539 77.4534C107.039 77.7869 106.692 78.3054 106.574 78.8948C106.456 79.4842 106.577 80.0963 106.91 80.5965L111.444 87.3963C111.651 87.7068 111.931 87.9614 112.26 88.1374C112.589 88.3135 112.956 88.4056 113.329 88.4055H118.728L119.638 90.225L113.994 95.8694C113.821 96.0414 113.678 96.2403 113.569 96.4582L111.302 100.991C111.065 101.466 111.002 102.009 111.124 102.526C111.245 103.042 111.545 103.499 111.969 103.818L120.119 109.93C114.175 116.699 106.856 122.122 98.6497 125.836C90.4433 129.551 81.5388 131.472 72.5309 131.471C61.0026 131.492 49.6725 128.473 39.6831 122.719C39.1653 122.413 38.5475 122.326 37.9655 122.477C37.3836 122.627 36.8851 123.002 36.5799 123.52C36.2746 124.038 36.1875 124.656 36.3378 125.238C36.4881 125.819 36.8634 126.318 37.3811 126.623C48.069 132.787 60.1933 136.022 72.5309 136.004C90.5587 135.983 107.842 128.813 120.59 116.065C133.338 103.318 140.508 86.0341 140.529 68.0062C140.656 59.1846 139.058 50.423 135.826 42.2139C135.597 41.658 135.158 41.2155 134.603 40.9836C134.049 40.7516 133.425 40.7491 132.869 40.9765V40.9765ZM116.203 101.327L117.459 98.8144L123.998 92.2746C124.335 91.9382 124.557 91.5045 124.633 91.035C124.709 90.5655 124.636 90.0838 124.423 89.6583L122.157 85.1251C121.968 84.7486 121.679 84.4319 121.321 84.2107C120.963 83.9894 120.55 83.8723 120.129 83.8723H114.542L111.939 79.9678L116.853 76.6919C116.978 76.6092 117.093 76.5143 117.199 76.4085L120.741 72.8659L126.212 74.6898C126.586 74.8152 126.987 74.8401 127.374 74.7617L135.774 73.0817C134.815 85.1941 130.379 96.7721 123 106.425L116.203 101.327Z" fill="url(#paint1_linear)"/>
<path d="M137.7 25.677C136.901 22.9115 135.244 20.4718 132.967 18.7106C130.69 16.9493 127.912 15.9579 125.035 15.8796C122.158 15.8014 119.33 16.6404 116.961 18.2753C114.592 19.9102 112.804 22.2563 111.856 24.9742C110.304 24.8583 108.745 25.0648 107.276 25.5807C105.807 26.0966 104.461 26.9108 103.322 27.972C102.183 29.0333 101.276 30.3187 100.658 31.7474C100.04 33.1761 99.7237 34.7172 99.7299 36.2739C99.7299 36.8751 99.9687 37.4516 100.394 37.8766C100.819 38.3017 101.395 38.5405 101.996 38.5405H142.795C143.396 38.5405 143.973 38.3017 144.398 37.8766C144.823 37.4516 145.062 36.8751 145.062 36.2739C145.068 33.9662 144.365 31.7123 143.048 29.817C141.731 27.9218 139.865 26.4766 137.7 25.677V25.677ZM104.652 34.0073C105.122 32.6825 105.99 31.5356 107.138 30.7239C108.286 29.9123 109.657 29.4758 111.063 29.4742C111.687 29.4859 112.307 29.585 112.903 29.7685C113.21 29.8552 113.531 29.8762 113.846 29.8304C114.161 29.7846 114.463 29.6729 114.732 29.5026C115.001 29.3323 115.231 29.1072 115.408 28.842C115.584 28.5768 115.702 28.2775 115.755 27.9635C116.104 25.861 117.184 23.9495 118.806 22.5668C120.428 21.1841 122.486 20.4193 124.617 20.4077C126.749 20.396 128.815 21.1382 130.452 22.503C132.089 23.8679 133.19 25.7675 133.562 27.866C133.64 28.3017 133.844 28.7049 134.149 29.0259C134.454 29.3468 134.846 29.5715 135.277 29.6722C136.387 29.9272 137.415 30.4582 138.265 31.216C139.116 31.9738 139.761 32.9338 140.142 34.0073H104.652Z" fill="url(#paint2_linear)"/>
<path d="M45.3318 117.871C45.3379 115.563 44.635 113.309 43.3184 111.414C42.0017 109.519 40.1347 108.074 37.97 107.274C37.1714 104.509 35.5139 102.069 33.2372 100.308C30.9605 98.5463 28.1825 97.5548 25.3051 97.4766C22.4277 97.3983 19.6 98.2373 17.231 99.8723C14.8619 101.507 13.0743 103.853 12.1266 106.571C10.574 106.455 9.0142 106.661 7.54518 107.176C6.07617 107.692 4.72978 108.506 3.59075 109.568C2.45171 110.629 1.54469 111.915 0.926736 113.344C0.308787 114.773 -0.00670646 116.314 0.000108083 117.871C0.000108083 118.472 0.238909 119.049 0.663976 119.474C1.08904 119.899 1.66556 120.138 2.26669 120.138H43.0653C43.6664 120.138 44.2429 119.899 44.668 119.474C45.093 119.049 45.3318 118.472 45.3318 117.871ZM4.92175 115.604C5.39194 114.28 6.26057 113.133 7.40844 112.321C8.55632 111.509 9.92722 111.073 11.333 111.071C11.9573 111.083 12.5768 111.182 13.1735 111.366C13.4799 111.452 13.8012 111.473 14.1163 111.428C14.4314 111.382 14.7333 111.27 15.0024 111.1C15.2715 110.929 15.5017 110.704 15.678 110.439C15.8542 110.174 15.9727 109.875 16.0256 109.561C16.3741 107.458 17.4547 105.547 19.0764 104.164C20.6981 102.781 22.7565 102.016 24.8876 102.005C27.0187 101.993 29.0854 102.735 30.7221 104.1C32.3589 105.465 33.4604 107.365 33.8319 109.463C33.9102 109.899 34.1144 110.302 34.4193 110.623C34.7241 110.944 35.1162 111.169 35.5473 111.269C36.6574 111.524 37.6853 112.055 38.5357 112.813C39.3861 113.571 40.0316 114.531 40.4124 115.604H4.92175Z" fill="url(#paint3_linear)"/>
<path d="M83.1467 34.1237L77.3994 36.0394L71.5216 32.1217C71.0857 31.8309 70.5625 31.7002 70.041 31.7519C69.5196 31.8035 69.0322 32.0343 68.6618 32.405L64.1286 36.9382C63.7036 37.3632 63.4647 37.9396 63.4646 38.5406V47.607C63.4645 47.9801 63.5566 48.3475 63.7327 48.6765C63.9088 49.0055 64.1634 49.2859 64.4739 49.4928L71.2737 54.026C71.5365 54.2011 71.833 54.3194 72.1443 54.3734C72.4555 54.4273 72.7745 54.4156 73.081 54.3392L82.1473 52.0726C82.5458 51.9731 82.9097 51.7669 83.1997 51.4761L89.9995 44.6763C90.3701 44.3059 90.6008 43.8185 90.6525 43.297C90.7041 42.7756 90.5735 42.2524 90.2828 41.8165L85.7497 35.0167C85.4742 34.6025 85.07 34.2906 84.5995 34.1292C84.129 33.9677 83.6184 33.9658 83.1467 34.1237V34.1237ZM80.4385 47.8272L72.9537 49.6976L67.9977 46.394V39.4791L70.5532 36.9237L75.8068 40.4264C76.0944 40.6172 76.4216 40.7401 76.7636 40.7859C77.1056 40.8317 77.4536 40.7993 77.7813 40.6909L82.9386 38.9722L85.4808 42.7849L80.4385 47.8272Z" fill="url(#paint4_linear)"/>
<path d="M98.8877 58.7783L110.221 63.3114C110.489 63.4183 110.774 63.4731 111.063 63.473C111.157 63.4732 111.251 63.4673 111.344 63.4553L129.477 61.1887C129.836 61.1438 130.18 61.0133 130.479 60.8081C130.778 60.6028 131.023 60.3289 131.194 60.0093C131.365 59.6897 131.457 59.3337 131.462 58.9712C131.467 58.6087 131.385 58.2503 131.223 57.9261L124.423 44.3265C124.235 43.95 123.946 43.6334 123.587 43.4121C123.229 43.1908 122.817 43.0736 122.396 43.0737H113.329C112.978 43.0737 112.63 43.1555 112.316 43.3128L103.249 47.846C102.897 48.0225 102.596 48.288 102.377 48.6162L97.844 55.416C97.657 55.6967 97.5349 56.0155 97.4867 56.3493C97.4384 56.6831 97.4653 57.0235 97.5653 57.3456C97.6653 57.6677 97.8359 57.9635 98.0646 58.2113C98.2934 58.4592 98.5746 58.6528 98.8877 58.7783V58.7783ZM105.815 51.6321L113.864 47.6069H120.995L125.736 57.0883L111.362 58.8845L103.165 55.6064L105.815 51.6321Z" fill="url(#paint5_linear)"/>
<defs>
<linearGradient id="paint0_linear" x1="60.0725" y1="0" x2="60.0725" y2="124.671" gradientUnits="userSpaceOnUse">
<stop offset="0.213542" stop-color="#18D983"/>
<stop offset="1" stop-color="#26D3D0"/>
</linearGradient>
<linearGradient id="paint1_linear" x1="88.4007" y1="40.8077" x2="88.4007" y2="136.004" gradientUnits="userSpaceOnUse">
<stop offset="0.213542" stop-color="#18D983"/>
<stop offset="1" stop-color="#26D3D0"/>
</linearGradient>
<linearGradient id="paint2_linear" x1="122.396" y1="15.8746" x2="122.396" y2="38.5405" gradientUnits="userSpaceOnUse">
<stop offset="0.213542" stop-color="#18D983"/>
<stop offset="1" stop-color="#26D3D0"/>
</linearGradient>
<linearGradient id="paint3_linear" x1="22.6659" y1="97.4716" x2="22.6659" y2="120.138" gradientUnits="userSpaceOnUse">
<stop offset="0.213542" stop-color="#18D983"/>
<stop offset="1" stop-color="#26D3D0"/>
</linearGradient>
<linearGradient id="paint4_linear" x1="77.064" y1="31.7408" x2="77.064" y2="54.4067" gradientUnits="userSpaceOnUse">
<stop offset="0.213542" stop-color="#18D983"/>
<stop offset="1" stop-color="#26D3D0"/>
</linearGradient>
<linearGradient id="paint5_linear" x1="114.463" y1="43.0737" x2="114.463" y2="63.473" gradientUnits="userSpaceOnUse">
<stop offset="0.213542" stop-color="#18D983"/>
<stop offset="1" stop-color="#26D3D0"/>
</linearGradient>
</defs>
</svg>
